<svg width="164" height="173" viewBox="0 0 164 173" fill="none" xmlns="http://www.w3.org/2000/svg">
<path d="M79.5046 110.619L35.1743 94.1788L40.1651 130.876C47.7003 132.246 62.7706 135.632 62.7706 138.216C62.7706 140.799 55.1376 142.619 51.3211 143.206C55.7248 143.793 64.6495 145.555 65.1193 147.904C65.589 150.252 56.1162 153.579 51.3211 154.949C55.1376 155.928 62.7706 158.296 62.7706 159.94C62.7706 161.584 56.5077 162.778 53.3762 163.17C55.1376 163.855 58.6606 165.636 58.6606 167.28C58.6606 168.924 57.0948 169.922 56.3119 170.216L83.9083 166.399L115.028 170.216C114.343 169.628 112.796 168.043 112.092 166.399C111.387 164.755 113.755 162.582 115.028 161.702C112.092 161.408 106.22 160.351 106.22 158.472C106.22 156.593 112.875 154.362 116.202 153.482C112.19 153.188 104.106 152.014 103.872 149.665C103.637 147.316 110.624 144.772 114.147 143.793L105.633 142.032C104.752 141.445 103.402 139.86 105.046 138.216C106.69 136.571 123.15 134.008 131.174 132.931C131.761 129.212 132.936 121.071 132.936 118.252C132.936 115.434 134.893 96.9189 135.872 88.0137L117.67 94.1788L79.5046 110.619Z" fill="#D2E0D3" stroke="#323130" stroke-width="3"/>
<path d="M24.6055 170.173H56.9724L83.9082 166.104L113.853 170.173H154.073" stroke="#323130" stroke-width="3" stroke-linecap="round" stroke-linejoin="round"/>
<path d="M2 130.435C8.52917 129.742 4.37744 130.435 10.0611 130.435C13.813 130.435 20.7415 130.194 25.1745 128.374C29.6075 126.554 36.1543 121.692 38.5382 119.884" stroke="#323130" stroke-width="3" stroke-linecap="round" stroke-linejoin="round"/>
<path d="M36.8706 131.597C51.068 130.517 80.9425 137.551 47.3102 143.064C51.7902 143.916 71.3132 144.45 63.4805 150.046C59.1649 153.128 52.0603 152.888 47.2104 154.643C52.0838 155.788 57.7792 155.23 61.9891 158.06C66.7451 161.26 51.0857 163.028 48.2732 163.186C57.9671 161.977 65.06 169.58 50.2049 170.144" stroke="#323130" stroke-width="3" stroke-linecap="round" stroke-linejoin="round"/>
<path d="M136.505 132.502C126.159 133.465 115.203 134.58 105.444 138.315C96.1556 141.838 113.5 144.186 121.82 144.051C116.7 144.122 111.545 144.674 106.771 146.523C101.98 148.191 102.561 152.6 107.681 152.647C110.523 152.865 118.074 153.44 118.121 153.458C119.066 153.734 113.905 154.767 112.396 155.289C110.2 155.941 106.079 156.816 106.079 159.03C106.478 162.829 120.305 161.654 123.529 161.965C119.806 162.928 114.399 162.435 111.856 165.612C110.764 168.248 114.205 169.722 116.26 170.162" stroke="#323130" stroke-width="3" stroke-linecap="round" stroke-linejoin="round"/>
<path d="M132.789 118.551C136.593 120.394 142.183 124.481 148.589 130.394C148.589 130.394 148.249 129.501 162 129.09" stroke="#323130" stroke-width="3" stroke-linecap="round" stroke-linejoin="round"/>
<path d="M40.1117 131.468L34.9741 93.6667L68.1426 106.678C72.7283 108.475 77.5371 110.307 82.4457 109.69C86.3561 109.197 89.8791 107.177 93.3433 105.298C107.103 97.8241 121.658 91.9156 136.734 87.6836C134.075 102.621 132.488 117.73 131.984 132.895" stroke="#323130" stroke-width="3" stroke-linecap="round" stroke-linejoin="round"/>
<path d="M80.3853 110.912C81.3306 128.486 83.0392 147.95 84.055 165.518" stroke="#323130" stroke-width="3" stroke-linecap="round" stroke-linejoin="round"/>
<path d="M43.9869 96.5208L42.3193 81.8125C55.931 88.1276 67.9323 97.4488 77.4195 109.074" stroke="#323130" stroke-width="3" stroke-linecap="round" stroke-linejoin="round"/>
<path d="M51.8726 86.8451C52.5771 83.9094 53.3698 80.7505 53.1584 78.1787C55.1862 79.2895 57.1468 80.5188 59.03 81.8602C67.7889 88.5259 74.7505 97.2672 79.2869 107.296L80.2381 107.519" stroke="#323130" stroke-width="3" stroke-linecap="round" stroke-linejoin="round"/>
<path d="M81.1304 107.084C87.8462 93.7873 98.5472 82.92 111.739 76L111.792 84.4844" stroke="#323130" stroke-width="3" stroke-linecap="round" stroke-linejoin="round"/>
<path d="M80.8721 109.074C87.184 101.787 98.0934 92.293 106.402 87.4313C113.249 83.383 120.609 80.2726 128.285 78.1836C128.672 81.7418 128.373 90.2731 128.373 90.2731" stroke="#323130" stroke-width="3" stroke-linecap="round" stroke-linejoin="round"/>
<path d="M80.0369 88.0274C76.8148 73.7037 82.9455 60.808 86.5285 49.835C89.2114 41.627 89.6643 31.5772 86.8128 23.2567C85.1832 18.5252 82.4805 13.6549 79.5847 9.56645C78.0119 7.34265 74.3623 2.46306 72.3873 1.45467" stroke="#DEE8F5" stroke-width="1.5" stroke-linecap="round" stroke-linejoin="round"/>
<path d="M69.7251 19.0571C68.0696 15.5676 65.8601 12.3327 63.1983 9.5017" stroke="#DEE8F5" stroke-width="1.5" stroke-linecap="round" stroke-linejoin="round"/>
<path d="M70.8873 78.9512C68.9661 74.1926 68.4352 67.407 70.2131 59.9822C72.4212 50.6392 73.1173 40.9734 72.2749 31.3525" stroke="#DEE8F5" stroke-width="1.5" stroke-linecap="round" stroke-linejoin="round"/>
<path d="M104.921 38.9763C106.652 30.2294 104.92 21.3797 99.9248 13.5068" stroke="#DEE8F5" stroke-width="1.5" stroke-linecap="round" stroke-linejoin="round"/>
<path d="M93.3155 69.5983C94.3777 64.0176 96.8738 57.389 100.408 50.8848" stroke="#DEE8F5" stroke-width="1.5" stroke-linecap="round" stroke-linejoin="round"/>
<path d="M62.6801 59.9911C62.9148 60.0825 63.515 60.2478 63.7498 60.3393" stroke="#3D1444" stroke-width="3" stroke-linecap="round" stroke-linejoin="round"/>
<path d="M70.8581 24.5224C71.0403 24.6503 71.489 24.9402 71.6829 25.0639" stroke="#FFB102" stroke-width="3" stroke-linecap="round" stroke-linejoin="round"/>
<path d="M80.5477 40.326C80.7825 40.4175 81.3852 40.5859 81.6175 40.6742" stroke="#3D1444" stroke-width="3" stroke-linecap="round" stroke-linejoin="round"/>
<path d="M85.8778 74.2762C86.1134 74.3671 86.6971 74.5454 86.9475 74.6244" stroke="#FFB102" stroke-width="3" stroke-linecap="round" stroke-linejoin="round"/>
<path d="M102.394 45.3436C102.629 45.4337 103.228 45.6017 103.464 45.6918" stroke="#FFB102" stroke-width="3" stroke-linecap="round" stroke-linejoin="round"/>
<path d="M94.6 22.8758C94.8329 22.9649 95.4368 23.135 95.6697 23.224" stroke="#3D1444" stroke-width="3" stroke-linecap="round" stroke-linejoin="round"/>
</svg>
