<svg width="520" height="520" viewBox="0 0 520 520" fill="none" xmlns="http://www.w3.org/2000/svg">
<path d="M200.712 311.69C201.532 315.74 202.222 318.98 202.712 321.14C204.02 326.696 206.265 331.989 209.352 336.79C214.712 344.98 223.422 352.35 234.062 353.53C259.142 356.29 286.342 350.53 309.732 344.26C318.132 342.01 342.732 332.89 353.632 328.19C374.872 319.03 369.552 292.19 367.852 273.27C366.192 254.68 362.412 235.96 358.932 217.63C350.712 174.29 340.722 131.31 332.652 87.9301C329.872 72.7701 322.962 47.3001 312.002 39.1301C306.872 35.3201 292.242 32.9801 284.792 33.0001C256.362 33.0901 233.142 35.5601 204.792 38.0001C183.192 39.8901 159.792 42.6201 161.862 68.2501C163.862 93.5601 170.182 140.64 178.692 189.46C180.352 198.98 183.382 216.46 186.782 235.8" stroke="#323130" stroke-width="6" stroke-linecap="round" stroke-linejoin="round"/>
<path d="M366.412 257.9C373.762 246.57 381.342 230.32 378.522 218.83C376.272 209.68 369.742 204.47 358.042 209.47C378.522 194.7 369.742 168.08 351.972 172.68C365.642 162.54 363.652 136.42 343.482 141.84" stroke="#323130" stroke-width="6" stroke-linecap="round" stroke-linejoin="round"/>
<path d="M325.022 339.23C321.022 347 314.092 358.33 311.672 366.83C308.562 377.72 309.582 392.29 310.112 403.44C310.822 418.44 312.112 487.23 312.112 487.23" stroke="#323130" stroke-width="6" stroke-linecap="round" stroke-linejoin="round"/>
<path d="M337.032 187.37L336.572 184.79C335.102 176.41 333.262 167.49 330.972 157.51C327.862 144.02 322.312 135.1 313.972 130.25C300.082 122.16 280.572 123.74 265.122 126.02L259.792 126.79C244.792 128.94 229.332 131.16 215.542 137.18C196.342 145.56 194.952 161.71 195.892 174.86C196.352 181.45 197.362 188.48 198.332 195.29C198.522 196.63 198.702 197.95 198.882 199.29C200.162 208.43 201.662 217.98 203.882 227.68C212.462 224.6 221.462 223.16 227.572 226.68C239.122 233.36 235.172 247.59 229.912 258.52C230.822 258.61 231.742 258.69 232.702 258.76C234.112 258.85 235.552 258.9 237.012 258.9C244.092 258.728 251.154 258.093 258.152 257L262.772 256.38C277.999 254.523 293.095 251.714 307.972 247.97C320.062 244.9 331.972 240.34 336.912 227.82C341.992 215.13 339.362 200.37 337.032 187.37Z" fill="#D1DAED"/>
<path d="M258.412 171.8C250.202 167.09 250.412 152.08 261.692 148.8C278.292 143.89 283.812 170.92 265.692 173.14C263.184 173.503 260.626 173.032 258.412 171.8Z" fill="#B786BB" stroke="#B786BB" stroke-width="6" stroke-linecap="round" stroke-linejoin="round"/>
<path d="M231.352 196.31C237.662 195.31 245.682 193.63 251.802 192.16C259.412 190.34 267.102 189.47 274.802 188.09C281.802 186.84 288.742 185.09 295.802 183.89C298.802 183.37 305.082 183.02 307.242 182.64" stroke="#323130" stroke-width="6" stroke-linecap="round" stroke-linejoin="round"/>
<path d="M245.502 204.331C257.122 202.641 268.602 200.551 280.082 198.521C284.542 197.731 291.502 196.811 295.952 196.021" stroke="#323130" stroke-width="6" stroke-linecap="round" stroke-linejoin="round"/>
<path d="M266.162 222.751C271.79 221.455 277.5 220.543 283.252 220.021C283.652 222.391 284.002 224.871 284.252 227.261C278.649 228.63 272.973 229.681 267.252 230.411C266.852 227.591 266.412 225.311 266.162 222.751Z" fill="#B786BB" stroke="#B786BB" stroke-width="6" stroke-linecap="round" stroke-linejoin="round"/>
<path d="M275.942 224.94C275.602 225.05 274.792 225.38 274.452 225.49" stroke="#323130" stroke-width="8" stroke-linecap="round" stroke-linejoin="round"/>
<path d="M182.972 63.0101L182.592 60.0801" stroke="#A19F9D" stroke-opacity="0.3" stroke-width="6" stroke-linecap="round" stroke-linejoin="round"/>
<path d="M191.792 61.8697L191.182 57.1797" stroke="#A19F9D" stroke-opacity="0.3" stroke-width="6" stroke-linecap="round" stroke-linejoin="round"/>
<path d="M200.622 60.7299L199.672 53.3799" stroke="#A19F9D" stroke-opacity="0.3" stroke-width="6" stroke-linecap="round" stroke-linejoin="round"/>
<path d="M284.872 52.18C290.182 51.87 299.242 51.71 299.242 51.71" stroke="#A19F9D" stroke-opacity="0.3" stroke-width="6" stroke-linecap="round" stroke-linejoin="round"/>
<path d="M141.282 469.301C141.282 438.461 140.412 407.631 140.042 376.791C139.702 348.911 141.352 318.861 148.162 291.581C152.772 273.131 167.562 248.641 183.562 237.951C193.032 231.621 215.792 219.791 227.642 226.641C243.102 235.581 230.782 258.071 224.742 268.031C213.332 286.891 199.742 308.651 195.162 327.911" stroke="#323130" stroke-width="6" stroke-linecap="round" stroke-linejoin="round"/>
<path d="M240.332 272.311C234.332 273.311 229.332 274.141 228.332 274.311" stroke="#A19F9D" stroke-opacity="0.3" stroke-width="6" stroke-linecap="round" stroke-linejoin="round"/>
<path d="M266.302 267.8C263.812 268.29 255.302 269.8 251.382 270.47" stroke="#A19F9D" stroke-opacity="0.3" stroke-width="6" stroke-linecap="round" stroke-linejoin="round"/>
<path d="M337.322 252.13C337.322 252.13 328.392 254.52 322.192 255.64" stroke="#A19F9D" stroke-opacity="0.3" stroke-width="6" stroke-linecap="round" stroke-linejoin="round"/>
</svg>
