<svg width="157" height="139" viewBox="0 0 157 139" fill="none" xmlns="http://www.w3.org/2000/svg">
<path d="M75.94 64.8569C78.4414 61.9002 82.0897 58.6265 85.6688 60.1077C88.4411 61.2604 89.4209 64.8626 88.7062 67.7732C88.0549 70.4071 86.4008 72.6318 84.8274 74.8566C94.9539 75.2946 105.046 75.4963 115.04 75.3868C116.769 66.8222 118.953 58.5919 120.659 50.0273L2.02295 67.3813C23.7917 70.044 46.0908 72.4762 68.3552 73.9517C70.8912 70.9258 73.3925 67.8712 75.94 64.8569Z" fill="#B786BB"/>
<path d="M119.184 25.2851C117.668 24.1843 116.089 23.0777 114.267 22.6685L109.201 24.1958L108.049 18.0058C108.049 18.0058 94.7925 9.12997 92.8098 7.76402C90.8272 6.39807 88.7754 5.04364 86.3893 4.88226C83.3346 4.66901 80.5508 6.49605 78.0495 8.25392C52.252 26.3629 2.02295 67.3818 2.02295 67.3818C50.4365 64.9842 97.2477 51.1921 145.903 47.1403C137.435 39.3352 128.513 32.0374 119.184 25.2851V25.2851Z" stroke="#3D1444" stroke-width="3.08" stroke-linecap="round" stroke-linejoin="round"/>
<path d="M108.026 18.0224C108.026 18.0224 94.7694 9.14658 92.7868 7.78062C90.8041 6.41467 88.7523 5.06024 86.3662 4.89887C83.3115 4.68562 80.5278 6.51265 78.0264 8.27052C52.252 26.3622 2.02295 67.3811 2.02295 67.3811C2.02295 67.3811 82.326 33.9066 109.224 24.2124L108.026 18.0224Z" fill="#FADAD8"/>
<path d="M119.184 25.2846C117.668 24.1838 116.089 23.0772 114.267 22.668L109.201 24.1953C82.3261 33.8895 2 67.364 2 67.364C50.4135 64.9664 97.2248 51.1743 145.88 47.1226C137.419 39.3241 128.505 32.0321 119.184 25.2846Z" fill="#FADAD8"/>
<path d="M81.3578 83.854C81.0754 80.8685 82.6258 78.0329 84.3318 75.5661C86.0378 73.0993 87.9859 70.6844 88.7063 67.7738C89.4268 64.8633 88.4412 61.2495 85.669 60.1084C82.0898 58.6271 78.4415 61.9008 75.9401 64.8575C71.6233 69.964 67.462 75.1972 62.9895 80.1711C51.8948 92.5166 44.4483 109.156 39.2554 124.665M75.9401 136.501C79.1908 129.314 95.6744 100.361 97.6628 92.7356C99.144 87.0874 99.2363 80.857 97.2651 75.4451" stroke="#3D1444" stroke-width="3.08" stroke-linecap="round" stroke-linejoin="round"/>
<path d="M51.8945 92.5157C50.2116 92.1584 49.4623 91.2131 48.7246 89.6339C48.3284 88.7745 48.1535 87.8297 48.216 86.8854C48.2784 85.9412 48.5761 85.0275 49.082 84.2278C50.6266 81.8301 53.6928 80.9829 56.442 80.3259L64.1535 78.4988C64.1535 78.4988 59.1796 78.7697 56.6956 79.1328C54.2115 79.4959 51.445 79.4383 49.5257 77.836C48.1079 76.6545 48.546 75.3058 48.8111 73.4961" stroke="#3D1444" stroke-width="3.08" stroke-linecap="round" stroke-linejoin="round"/>
<path d="M68.3552 73.958C46.0908 72.4825 23.7917 70.0446 2.02295 67.3818" stroke="#323130" stroke-width="3.08" stroke-linecap="round" stroke-linejoin="round"/>
<path d="M120.659 50.0273C118.93 58.5919 116.746 66.8222 115.04 75.3868C105.04 75.4963 94.9541 75.3004 84.8276 74.8623" stroke="#3D1444" stroke-width="3.08" stroke-linecap="round" stroke-linejoin="round"/>
<path d="M119.184 25.2851C117.668 24.1843 116.089 23.0777 114.267 22.6685L109.201 24.1958L108.049 18.0058C108.049 18.0058 94.7925 9.12997 92.8098 7.76402C90.8272 6.39807 88.7754 5.04364 86.3893 4.88226C83.3346 4.66901 80.5508 6.49605 78.0495 8.25392C52.252 26.3629 2.02295 67.3818 2.02295 67.3818C50.4365 64.9842 97.2477 51.1921 145.903 47.1403C137.435 39.3352 128.513 32.0374 119.184 25.2851V25.2851Z" stroke="#323130" stroke-width="3.08" stroke-linecap="round" stroke-linejoin="round"/>
<path d="M109.201 24.1953C82.3261 33.8895 2 67.364 2 67.364" stroke="#323130" stroke-width="3.08" stroke-linecap="round" stroke-linejoin="round"/>
<path d="M128.532 61.3241L155.044 58.1484" stroke="#3D1444" stroke-width="3.08" stroke-linecap="round" stroke-linejoin="round"/>
<path d="M135 27L155 23" stroke="#3D1444" stroke-width="3.08" stroke-linecap="round" stroke-linejoin="round"/>
<path d="M111.328 11.066C120.377 7.83268 139.097 2 139.097 2" stroke="#3D1444" stroke-width="3.08" stroke-linecap="round" stroke-linejoin="round"/>
</svg>
